<?xml version="1.0" encoding="UTF-8"?>
<svg id="Ebene_1" data-name="Ebene 1" xmlns="http://www.w3.org/2000/svg" viewBox="0 0 1125.75 775.5">
  <defs>
    <style>
      .cls-1 {
        fill: #109789;
        stroke: #109789;
        stroke-miterlimit: 10;
      }

      .cls-2 {
        fill: #21282e;
      }

      .cls-3 {
        fill: #fcfdfd;
      }

      .cls-4 {
        fill: #19978b;
      }
    </style>
  </defs>
  <g>
    <path class="cls-1" d="M511.37,418.58c1.45-5.33,4.72-8.72,8.25-12.29,12.85-12.99,11.1-52.18.61-63.13-6.28-6.56-11.03-13.49-9.45-22.99,1.77-10.66,10.81-18.94,22.14-17.97,7.4.63,13.42-1.13,19.42-5.58,8.79-6.53,16.42-14.63,19.41-25.72,1.5-5.58,1.57-13.04-1.52-18.09-5.54-9.04-14.92-13.79-25.09-15.35-1.32-.2-2.67-.06-3.94.34-4.85,1.5-12,1.7-17.83.15-1.46-.39-3.87-.73-5.37-.63-11.32.76-22.44,6.54-26.26,16.99-.09.25-.15.51-.18.78-1.29,10.1-7.04,18.54-16.38,21.13-10.11,2.81-19.92-1.36-25.63-10.03-3.55-5.4-3.11-11.16-2.89-17.47.37-10.49-10.75-23.36-18.74-31.31-.32-.32-.61-.67-.87-1.04-2.45-3.55,2.83-7.4,5.59-4.09,4.83,5.79,10.39,11.24,15.9,15.21,13.59,9.81,18.14,1.44,31.28,7.67,9.37,4.44,25.3-2.05,32.24-11.28,1.05-1.39,1.65-3.05,1.89-4.78.56-4.03,2.16-7.67,4.94-10.56,8.62-9.06,9.8-27.47,9.72-40.7-.06-10.3-.93-20.18-5.09-29.67-.77-1.76-1.94-4.19-3.39-5.49-5.08-4.57-9.32-10.15-9.68-17.2-.56-10.89,6.23-20.4,16.29-23.03,10.17-2.65,21.25,2.49,25.35,12.46,4.39,10.66.56,20.95-7.88,27.87-.25.2-.47.43-.66.7-11.05,15.79-11.04,58.7-.95,71.12,2.31,2.85,6.21,6.39,7.23,12.83,1.85,11.67,12.71,19.37,24.1,22.01,4.12.95,7.84-.29,11.48-1.63s6.43-1.49,9.3-1.47c10.16.07,19.92-3.96,26.95-11.3,6.33-6.6,15.09-15.44,15.19-25.48,0-.18-.01-.37-.04-.55-2.03-13.96,2.66-27.6,16.96-32.82,12.46-4.55,28.09,1.2,33.22,14.35,5.44,13.96-.77,28.37-14.18,34.23-7.54,3.29-14.68,1.08-22.31-.12-6.19-.98-12.82,4.39-16.59,8.12l-6.23,6.17c-.36.36-.72.73-1.07,1.1-6.82,7.22-10.46,16.87-10.56,26.8l-.02,2.2c-.05,5.04-1.73,10-5.04,13.8-4.55,5.22-11.65,7.57-18.78,7.31-4.6-.17-8.58.57-12.41,2.71-10.38,5.79-18.49,14.28-23.85,24.93-5.87,11.67,3.77,18.86-10.38,33.85-13.78,14.59-12.67,55.1.59,66.22,3.39,2.84,5.85,6.73,6.86,10.97,2.23,9.41-.74,18.33-8.21,23.61-7.41,5.24-17.43,5.61-24.85.33s-11.24-14.44-8.58-24.19Z"/>
    <ellipse class="cls-4" cx="401.8" cy="188.7" rx="25.91" ry="25.9"/>
    <ellipse class="cls-4" cx="680.06" cy="323.67" rx="21.17" ry="21.16"/>
    <ellipse class="cls-4" cx="382.45" cy="323.31" rx="21.14" ry="21.13"/>
    <ellipse class="cls-4" cx="616.33" cy="372.06" rx="20.83" ry="20.82"/>
    <ellipse class="cls-4" cx="447.2" cy="371.98" rx="20.83" ry="20.82"/>
  </g>
  <path class="cls-3" d="M812.51,561.89l-42.73.15c-2.57,0-4.07-2.13-4.07-4.58l-.02-34.51c0-2.09.81-4.48,3.5-4.48l42.34-.03c11.44,1.26,19.61,9.69,19.88,20.98.28,11.52-7.01,20.43-18.89,22.46Z"/>
  <g>
    <path class="cls-2" d="M681.79,561.13c0,31.22-25.32,56.54-56.55,56.54s-56.55-25.31-56.55-56.54,25.32-56.54,56.55-56.54,56.55,25.31,56.55,56.54ZM669.22,561.15c0-24.34-19.74-44.07-44.09-44.07s-44.09,19.73-44.09,44.07,19.74,44.07,44.09,44.07,44.09-19.73,44.09-44.07Z"/>
    <ellipse class="cls-3" cx="625.13" cy="561.15" rx="44.09" ry="44.07"/>
  </g>
  <g>
    <path class="cls-2" d="M172.26,530.33c0-1.1-1.77-.7-2.25,0l-14.71,21.25-27.24,39.43c-2.29,1.93-8.73,2.11-10.47-.38l-43.29-61.93c-1.59,12.25.86,25.59-.44,34.44-.72,4.88.22,9.65,0,14.44-.3,6.37-.31,12.42.25,18.81l-.48,18.73-11.77-.07-.02-107.73,12.83.17,24.21,35.04,23.97,35.08,40.14-57.89c2.91-4.2,5.3-8.72,9.11-11.95,3.42-1.34,8.26-.38,12.03-.3-.2,4.84-.92,9.15-.03,13.71.57,2.94-.31,5.77-.11,8.6.41,5.86-.09,11.34-.04,17.23l.11,15.36.15,17.33c.1,11.8.67,23.32-.75,35.18-3.71.45-7.16.5-11.1-.05l-.11-84.48Z"/>
    <path class="cls-2" d="M303.58,525.07c-.71-1.58-.86-2.07-1.91-2.09-.97-.03-1.23.54-1.74,1.67l-40.78,90.23-13.09.14,12.01-27.41,36.03-79.08c4.76-2.09,12.6-2.14,15.47,1.12l47.31,104.98c-4.49,1-8.42.42-13.01.43l-40.29-89.98Z"/>
    <path class="cls-2" d="M498.96,506.81l14.18.02-49.56,106.99c-4.22,2.74-13.32,2.77-17.13-.07l-49.75-106.71,14.42-.14,23.69,50.36,20.23,43.26,43.92-93.71Z"/>
  </g>
  <g>
    <path class="cls-2" d="M831.41,615.8l-31.67-42.59-28.36.14c-2.3.01-5.6.39-5.61,3.61l-.11,38.63-12.34.09-.1-59.46.03-49.6,59.16.18c15.33.05,27.74,10.74,31.35,25.19,3.49,21.35-7.07,37.21-28.19,40.81l32.46,42.4-16.61.6ZM812.51,561.89c11.88-2.03,19.17-10.94,18.89-22.46-.27-11.29-8.44-19.72-19.88-20.98l-42.34.03c-2.7,0-3.5,2.4-3.5,4.48l.02,34.51c0,2.44,1.5,4.59,4.07,4.58l42.73-.15Z"/>
    <path class="cls-2" d="M965.22,536.51l-5.52-12.41c-.37-.84-1.74-.76-2.09.04l-8.34,18.9-32.92,72.34-14,.2c.21-2.73,1.05-4.07,2.01-6.17l46.27-100.93c3.94-3.06,15.17-2.25,16.26.14l7.06,15.61,30.09,67.03,10.42,24.17-13.81.24-35.43-79.16Z"/>
  </g>
</svg>