<?xml version="1.0" encoding="UTF-8"?>
<svg xmlns="http://www.w3.org/2000/svg" viewBox="0 0 433.2 281.52" role="img" aria-labelledby="title">
  <title id="title">Avareno logo mark</title>
  <defs>
    <linearGradient id="avareno-mark-gradient" x1="36.69" y1="140.63" x2="488.33" y2="140.63" gradientUnits="userSpaceOnUse">
      <stop offset="0" stop-color="#197BBD"/>
      <stop offset=".52" stop-color="#5B85AA"/>
      <stop offset="1" stop-color="#475EA8"/>
    </linearGradient>
  </defs>
  <path fill="url(#avareno-mark-gradient)" d="M226.57,172.68l17.59-21.28,51.03,64.82c1.69,2.15,2.83,4.72,2.98,7.45.18,3.26-.82,7.45-5.5,11.14s-9.43,3.26-13.01,1.91c-3.11-1.17-5.75-3.31-7.79-5.93l-45.29-58.12ZM67.1,196.83l53.06-124.46c2.34-5.49,8.02-9.08,13.93-8.2.41.06.83.14,1.26.24,3.85.87,7.21,3.22,9.69,6.3l45.29,56.36,17.45-21.7-46.18-57.17c-2.75-3.41-6.24-6.15-10.24-7.95-7.17-3.23-19.23-6.29-34.2-1-7.5,2.65-13.84,7.79-18.16,14.47-3.19,4.93-6.99,11.89-10.38,21.01-6.62,17.84-39.94,97.33-48.86,118.59-2.49,5.94-3.55,12.38-2.87,18.78.74,6.94,3.28,15.66,10.24,23.91,10.25,12.16,20.2,9.59,25.41,6.81,2.78-1.48,4.9-4.03,5.57-7.11.76-3.48.56-8.55-4.17-13.75,0,0-1.67-1.29-3.62-3.53-5.17-5.93-6.31-14.38-3.22-21.61ZM137.2,222.58c.12,13.72,8.76,14.95,14.73,14.15,3.23-.43,6.14-2.12,8.17-4.67,17.37-21.69,115.86-144.73,129.8-162.14,1.21-1.51,2.68-2.81,4.43-3.67,4.29-2.1,8.08-2.16,11.03-1.52,3.69.8,6.72,3.41,8.21,6.88l47.5,111s15.02,25.62,4.79,34.68c-2.7,2.39-4.71,4.55-6.2,6.45-4.41,5.6-4.41,13.77.72,18.72,2.04,1.96,4.82,3.31,8.56,2.81,10.69-1.44,13.53-4.72,13.53-4.72,12.44-11.37,15.04-24.34,15.26-32.4.11-4.13-.75-8.23-2.35-12.04l-54.83-130.88c-4.47-14.04-12.55-18.94-12.55-18.94-13.72-15.02-32.75-10.63-43.54-6.26-5.04,2.04-9.41,5.43-12.81,9.67l-131.04,163.45c-2.15,2.68-3.42,5.99-3.39,9.42ZM216.64,206.23c-10.81,0-19.58,8.76-19.58,19.58s8.76,19.58,19.58,19.58,19.58-8.76,19.58-19.58-8.76-19.58-19.58-19.58Z"/>
</svg>
