<?xml version="1.0" encoding="UTF-8"?>
<svg id="Ebene_1" data-name="Ebene 1" xmlns="http://www.w3.org/2000/svg" viewBox="0 0 226.5 227.25">
  <defs>
    <style>
      .cls-1 {
        fill: #ededed;
      }

      .cls-2 {
        fill: #0f7e7c;
      }
    </style>
  </defs>
  <path class="cls-2" d="M220.26,184.31c-1.7,11.5-8.86,23.97-17.79,29.24l-7.15,4.22c-4.61,2.72-9.89,3.25-15.46,4.3H48.18c-9.22-1.64-17.7-3.34-24.7-9.31-4.95-4.23-9.83-8.84-12.85-14.75-2.55-5-5.26-11.16-5.26-17.14l-.1-132.95c1.88-14.87,9.81-28,22.7-35.57,5.94-3.49,12.74-6.31,19.94-6.31l131.41-.07c2.74,0,5.08,1.04,7.35,1.58,11.05,2.64,19.98,8.52,26.59,17.74,6.15,8.56,8.24,18.51,8.19,29.31l-.16,29.89.02,8.99.08,47.81-.17,36.6-.95,6.42ZM112.04,168.65c-.66,3.09-2.34,5.84-4.53,8.12-2,2.08-2.45,4.86-2.19,8.18.28,4.06,4.79,7.09,8.65,7.11,4.28.02,8.14-2.89,8.8-7.26.44-3.53-.24-6.59-2.55-8.84-1.55-1.51-2.8-3.3-3.46-5.36-2.04-6.43-1.7-13.71,2.12-19.57,1.68-2.58,3.31-4.32,4.44-8.21,1.19-4.08-.44-5.86,1.17-7.8,2.64-3.19,4.73-6.71,7.82-9.52,1.34-1.22,5.49-1.31,7.27-1.37,5.34-.76,8.2-4.66,7.9-9.42-.13-2.1.19-4.22,1.23-6.05,2.03-3.58,4.77-6.64,8.12-9,2.3-1.62,5.18-2.08,7.97-1.72,4.35.57,8.35-1.5,10.47-5.66,1.57-3.08,1.43-5.7.01-8.87-1.91-4.27-6.45-7.58-10.97-5.98-5.68,2.02-8.64,6.81-8.53,11.99.06,2.64-.79,5.22-2.2,7.45-.19.31-.39.62-.6.95-1.88,2.96-4.79,5.8-7.91,7.65-1.23.73-2.69,1.04-4.11.85-2.03-.27-3.78.03-5.75.82-1.22.49-3.28.57-4.55.24-3.57-.95-7.09-3.28-8.69-6.44l-3.79-7.47c-3.56-7.01-3.75-14.95-1.94-22.4.7-2.87,2.02-5.57,3.89-7.86,2.69-3.3,3.58-7.74,1.67-11.48-2.39-4.67-7.26-5.65-11.25-4.32-3.76,1.25-7.08,5.69-5.81,11.12.75,3.22,3.32,4.7,4.33,6.45,5.4,9.36,5.02,20.39.04,29.89l-2.91,5.56c-2.2,4.21-7.9,6.72-12.39,5.28-2.65-.85-5.08-.92-7.92-1.21-6.03-.63-10.83-5.12-13.58-10.28-.94-1.77-1.14-3.81-.8-5.78.37-2.14-.06-4.12-.94-5.95-.94-1.94-2.47-3.52-4.44-4.42-2.34-1.07-5.1-1.64-7.02-1.15-7.09,1.82-10.59,9.77-7.06,16.1,2.29,4.11,6.92,5.1,11.26,4.22,3.05-.62,6.24.02,8.63,2.01,3.51,2.92,6.47,7.52,6.96,10.58.62,3.87.15,7.83,3.12,10.72,2.73,2.66,6.69,3.2,9.84,1.79,3.51-1.57,4.53-4.57,5.98-8.25,2.29-5.84,8.51-7.64,13.93-6.91,1.44.19,3.81.16,5.25.04,3.36-.28,6.66,1.25,8.34,2.14,5.06,2.6,6.42,10.17,2.94,14.96-3.19,4.38-10.01,8.65-12.26,8.68-2.96.04-4.98.58-6.86,2.06s-3.01,3.45-3.42,5.72c-.63,3.4.18,6.78,2.74,9.28.9.88,1.67,1.88,2.14,3.04,2,4.98,2.5,10.32,1.39,15.52ZM59.88,147.71c3.06-3.38,2.32-8.09-.44-11.35-3.19-3.76-8.35-2.75-11.71.11-4.22,3.6-2.81,8.11-.14,11.88,1.48,2.1,3.79,3.01,6.65,2.85,1.64-.09,3.95-1.61,5.65-3.48ZM181.64,146.34c2.01-5.06-.11-9.9-4.07-11.75s-8.49-.44-11.15,3.67c-2.51,3.88-.68,9.7,3.21,11.78s10.16.97,12.01-3.7ZM82.49,169.52c4.36-1.31,6.58-5.72,5.61-9.76-.85-3.53-3.95-6.5-8.13-6.61-5.49-.15-9.42,4.48-8.8,9.44.66,5.24,5.53,8.67,11.32,6.93ZM148.77,170.28c5.79-.7,8.1-5.35,7.52-9.91-.5-3.9-4.35-7.89-8.99-7.09-3.79.66-7.23,4.35-7.42,8.3-.22,4.51,4.3,9.25,8.89,8.7Z"/>
  <circle class="cls-1" cx="53.46" cy="143" r="8.96"/>
  <circle class="cls-1" cx="79.72" cy="161.88" r="8.96"/>
  <circle class="cls-1" cx="148.12" cy="161.68" r="8.96"/>
  <circle class="cls-1" cx="173.84" cy="142.54" r="8.96"/>
</svg>
